<svg width="766" height="191" viewBox="0 0 766 191" fill="none" xmlns="http://www.w3.org/2000/svg">
<path d="M665.899 76.1194H622.153V190.851H665.899V76.1194Z" fill="black"/>
<path d="M722.264 0H565.787V37.892H722.264V0Z" fill="black"/>
<path d="M544.195 0.453857H500.518V190.999H544.195V0.453857Z" fill="black"/>
<path d="M169.235 54.5881C164.473 42.7074 157.828 32.6917 149.329 24.5607C140.821 16.4199 130.675 10.292 118.903 6.17718C107.122 2.06235 94.2157 0 80.1957 0H0V38.1683H78.2337C94.679 38.1683 107.634 43.0331 117.07 52.7626C126.505 62.4922 131.228 76.7115 131.228 95.4207C131.228 114.13 126.505 128.349 117.07 138.079C107.624 147.808 94.679 152.673 78.2337 152.673H43.7458V76.1195H0V190.851H80.1957C94.2157 190.851 107.112 188.799 118.894 184.674C130.675 180.559 140.811 174.431 149.319 166.291C157.828 158.15 164.463 148.193 169.225 136.401C173.997 124.609 176.373 110.962 176.373 95.4207C176.373 79.879 173.987 66.4688 169.225 54.5881H169.235Z" fill="black"/>
<path d="M766 153.048H722.254V190.999H766V153.048Z" fill="black"/>
<path d="M303.164 190.851L240.459 95.4305L303.154 0H250.407L214.204 55.4664L199.316 78.2706C192.513 88.6909 192.513 102.16 199.316 112.581L214.194 135.375L250.397 190.851H303.164Z" fill="#00B8FF"/>
<path d="M328.591 190.851L391.297 95.4305L328.601 0H381.349L417.552 55.4664L432.44 78.2706C439.242 88.6909 439.242 102.16 432.44 112.581L417.562 135.375L381.358 190.851H328.591Z" fill="#00B8FF"/>
</svg>
