<svg width="279" height="280" viewBox="0 0 279 280" fill="none" xmlns="http://www.w3.org/2000/svg">
<path d="M279 140C279 118.751 261.84 101.529 240.667 101.529H232.041L238.141 95.4077C253.114 80.3815 253.114 56.0204 238.141 41.0054C223.168 25.9791 198.894 25.9791 183.933 41.0054L177.833 47.1268V38.4709C177.833 17.2214 160.674 0 139.5 0C118.326 0 101.167 17.2214 101.167 38.4709V47.1268L95.067 41.0054C80.0944 25.9791 55.8203 25.9791 40.859 41.0054C25.8864 56.0317 25.8864 80.3928 40.859 95.4077L46.9585 101.529H38.3335C17.1599 101.529 0 118.751 0 140C0 161.25 17.1599 178.471 38.3335 178.471H46.9585L40.859 184.592C25.8864 199.619 25.8864 223.98 40.859 238.995C55.8316 254.021 80.1057 254.021 95.067 238.995L101.167 232.873V241.529C101.167 262.779 118.326 280 139.5 280C160.674 280 177.833 262.779 177.833 241.529V232.873L183.933 238.995C198.906 254.021 223.18 254.021 238.141 238.995C253.114 223.968 253.114 199.607 238.141 184.592L232.041 178.471H240.667C261.84 178.471 279 161.25 279 140Z" fill="white"/>
</svg>
