<svg width="306" height="306" viewBox="0 0 306 306" fill="none" xmlns="http://www.w3.org/2000/svg">
<path d="M306 153L292.328 148.193C264.917 138.558 245.654 130.045 230.58 120.864C234.747 103.712 242.346 84.0785 254.917 57.877L261.189 44.8107L248.123 51.0825C221.922 63.6537 202.288 71.2528 185.136 75.4203C175.955 60.3459 167.442 41.0833 157.807 13.6715L153 0L148.193 13.6715C138.558 41.0833 130.044 60.339 120.864 75.4203C103.712 71.2528 84.0716 63.6537 57.877 51.0825L44.8107 44.8107L51.0825 57.877C63.6537 84.0785 71.2528 103.719 75.4203 120.864C60.3459 130.045 41.0833 138.558 13.6715 148.193L0 153L13.6715 157.807C41.0833 167.442 60.3459 175.955 75.4203 185.136C71.2528 202.288 63.6537 221.928 51.0825 248.123L44.8107 261.189L57.877 254.917C84.0716 242.346 103.705 234.747 120.864 230.58C130.044 245.654 138.558 264.917 148.193 292.329L153 306L157.807 292.329C167.442 264.917 175.955 245.654 185.136 230.58C202.288 234.747 221.928 242.346 248.123 254.917L261.189 261.189L254.917 248.123C242.346 221.922 234.747 202.281 230.58 185.136C245.654 175.955 264.917 167.442 292.328 157.807L306 153Z" fill="white"/>
</svg>
