<?xml version="1.0" encoding="UTF-8"?>
<svg id="_레이어_1" data-name="레이어 1" xmlns="http://www.w3.org/2000/svg" viewBox="0 0 177.78 100">
  <defs>
    <style>
      .cls-1 {
        fill: #14171a;
      }

      .cls-1, .cls-2 {
        stroke-width: 0px;
      }

      .cls-2 {
        fill: #00b8ff;
      }
    </style>
  </defs>
  <rect class="cls-1" x="125.98" y="49.48" width="6.78" height="17.78"/>
  <rect class="cls-1" x="117.24" y="37.69" width="24.27" height="5.87"/>
  <rect class="cls-1" x="107.12" y="37.76" width="6.77" height="29.53"/>
  <path class="cls-1" d="M55.73,46.15c-.74-1.84-1.77-3.39-3.09-4.65-1.32-1.26-2.89-2.21-4.72-2.85-1.83-.64-3.83-.96-6-.96h-12.44v5.92h12.13c2.55,0,4.56.75,6.02,2.26,1.46,1.51,2.2,3.71,2.2,6.61s-.73,5.1-2.2,6.61c-1.46,1.51-3.47,2.26-6.02,2.26h-5.35v-11.86h-6.78v17.78h12.44c2.17,0,4.18-.32,6-.96,1.83-.64,3.4-1.59,4.72-2.85,1.32-1.26,2.35-2.81,3.09-4.63.74-1.83,1.11-3.94,1.11-6.35s-.37-4.49-1.11-6.33Z"/>
  <rect class="cls-1" x="141.51" y="61.41" width="6.78" height="5.88"/>
  <path class="cls-2" d="M76.51,67.26l-9.73-14.79h0s9.72-14.79,9.72-14.79h-8.18l-5.62,8.6-2.31,3.53c-1.06,1.62-1.06,3.7,0,5.32l2.31,3.53,5.62,8.6h8.18Z"/>
  <path class="cls-2" d="M80.45,67.26l9.73-14.79h0s-9.72-14.79-9.72-14.79h8.18s5.62,8.6,5.62,8.6l2.31,3.53c1.06,1.62,1.06,3.7,0,5.32l-2.31,3.53-5.62,8.6h-8.18Z"/>
</svg>