<svg width="1294" height="333" viewBox="0 0 1294 333" fill="none" xmlns="http://www.w3.org/2000/svg">
<path d="M1280.68 0.854492H13.1113C5.97514 0.854492 0.190125 6.63951 0.190125 13.7757V319.709C0.190125 326.845 5.97514 332.63 13.1113 332.63H1280.68C1287.82 332.63 1293.6 326.845 1293.6 319.709V13.7757C1293.6 6.63951 1287.82 0.854492 1280.68 0.854492Z" fill="#A6A6A6"/>
<path d="M86.3168 256.189V85.688H158.584C176.556 85.688 190.208 90.6144 199.602 100.467C206.908 108.107 210.561 117.793 210.561 129.566C210.561 147.685 201.418 159.604 183.132 165.344V166.054C193.297 168.434 201.564 173.172 207.93 180.248C214.297 187.325 217.47 196.343 217.47 207.322C217.47 220.369 213.337 231.244 205.071 239.991C195.051 250.804 180.815 256.21 162.383 256.21H86.3168V256.189ZM107.776 158.665H155.953C166.286 158.665 174.385 156.201 180.272 151.275C186.158 146.349 189.102 139.523 189.102 130.776C189.102 122.51 186.43 116.039 181.107 111.342C175.784 106.667 168.353 104.308 158.813 104.308H107.776V158.685V158.665ZM107.776 236.88H161.422C173.196 236.88 182.088 234.021 188.142 228.301C193.235 222.895 195.782 216.298 195.782 208.512C195.782 198.179 192.525 190.31 186.012 184.903C179.5 179.497 170.837 176.804 160.024 176.804H107.796V236.901L107.776 236.88Z" fill="white" stroke="white" stroke-width="2.52579" stroke-miterlimit="10"/>
<path d="M223.92 256.189L286.647 85.688H310.736L373.693 256.189H350.314L332.195 204.191H264.228L245.859 256.189H223.92ZM290.697 129.566L270.428 186.803H326.225L306.665 129.566L299.025 105.477H298.545C295.519 115.016 292.909 123.053 290.676 129.566H290.697Z" fill="white" stroke="white" stroke-width="2.52579" stroke-miterlimit="10"/>
<path d="M454.768 259.528C430.763 259.528 411.454 251.262 396.821 234.73C382.188 218.197 374.882 196.906 374.882 170.813C374.882 144.72 382.147 123.804 396.696 107.021C411.245 90.238 430.909 81.8674 455.708 81.8674C475.1 81.8674 490.755 86.8773 502.696 96.8969C514.615 106.917 521.775 120.026 524.154 136.245H503.176C501.109 125.432 495.911 116.769 487.562 110.257C479.212 103.744 468.441 100.487 455.248 100.487C436.962 100.487 422.664 107.042 412.331 120.172C401.998 133.281 396.821 150.189 396.821 170.854C396.821 191.52 402.186 208.741 412.915 221.537C423.645 234.333 437.839 240.742 455.478 240.742C470.737 240.742 482.552 236.295 490.902 227.382C499.251 218.49 503.969 207.28 505.096 193.754H526.325C526.158 202.187 524.217 210.808 520.48 219.617C516.744 228.447 511.859 235.794 505.806 241.681C493.553 253.6 476.561 259.57 454.768 259.57V259.528Z" fill="white" stroke="white" stroke-width="2.52579" stroke-miterlimit="10"/>
<path d="M548.014 256.189V85.688H569.473V170.333L653.408 85.688H680.357L611.43 153.884L686.076 256.189H661.027L596.881 168.434L569.452 195.862V256.189H547.993H548.014Z" fill="white" stroke="white" stroke-width="2.52579" stroke-miterlimit="10"/>
<path d="M675.597 188.222V167.953H744.274V188.222H675.597Z" fill="white" stroke="white" stroke-width="2.52579" stroke-miterlimit="10"/>
<path d="M766.922 256.189V85.688H887.346V104.517H788.381V158.414H878.286V176.533H788.381V236.4H890.206V256.189H766.922Z" fill="white" stroke="white" stroke-width="2.52579" stroke-miterlimit="10"/>
<path d="M912.876 256.189V85.688H935.524L1013.26 204.212L1025.66 226.151H1026.14V85.688H1046.18V256.189H1024.24L946.024 137.435L933.395 116.206H932.915V256.189H912.876Z" fill="white" stroke="white" stroke-width="2.52579" stroke-miterlimit="10"/>
<path d="M1075.76 256.189V85.688H1137.75C1162.72 85.688 1181.55 93.3906 1194.28 108.817C1206.99 124.243 1213.36 145.138 1213.36 171.544C1213.36 197.95 1206.76 218.448 1193.57 233.541C1180.38 248.654 1161.22 256.189 1136.11 256.189H1075.78H1075.76ZM1097.22 237.36H1135.37C1172.74 237.36 1191.42 215.422 1191.42 171.544C1191.42 127.666 1173.3 104.287 1137.04 104.287H1097.22V237.36Z" fill="white" stroke="white" stroke-width="2.52579" stroke-miterlimit="10"/>
</svg>
