<svg width="451" height="333" viewBox="0 0 451 333" fill="none" xmlns="http://www.w3.org/2000/svg">
<path d="M435.975 0.854492H14.8787C6.76258 0.854492 0.183105 7.43397 0.183105 15.5501V317.935C0.183105 326.051 6.76258 332.63 14.8787 332.63H435.975C444.092 332.63 450.671 326.051 450.671 317.935V15.5501C450.671 7.43397 444.092 0.854492 435.975 0.854492Z" fill="#A6A6A6"/>
<path d="M354.858 60.2213C362.478 60.2213 368.656 54.0438 368.656 46.4235C368.656 38.8031 362.478 32.6256 354.858 32.6256C347.237 32.6256 341.06 38.8031 341.06 46.4235C341.06 54.0438 347.237 60.2213 354.858 60.2213Z" fill="white"/>
<path d="M404.456 60.2213C412.076 60.2213 418.254 54.0438 418.254 46.4235C418.254 38.8031 412.076 32.6256 404.456 32.6256C396.835 32.6256 390.658 38.8031 390.658 46.4235C390.658 54.0438 396.835 60.2213 404.456 60.2213Z" fill="white"/>
<path d="M225.438 283.346C211.244 283.346 199.449 274.077 196.11 260.28C195.713 258.631 194.92 257.086 193.834 255.812C192.728 254.518 191.329 253.516 189.764 252.869C188.198 252.222 186.507 251.951 184.817 252.076C183.147 252.201 181.477 252.744 180.057 253.621C167.929 261.01 153.046 259.215 143.006 249.195C132.965 239.155 131.191 224.271 138.559 212.144C139.436 210.703 139.979 209.054 140.104 207.363C140.229 205.672 139.958 203.961 139.311 202.416C138.664 200.85 137.641 199.452 136.367 198.366C135.094 197.281 133.549 196.488 131.9 196.091C118.102 192.751 108.855 180.957 108.855 166.763C108.855 152.568 118.123 140.774 131.921 137.434C133.57 137.038 135.115 136.245 136.388 135.159C137.662 134.053 138.685 132.654 139.332 131.11C139.979 129.544 140.25 127.832 140.125 126.162C140 124.472 139.457 122.822 138.58 121.382C131.191 109.254 132.986 94.3708 143.006 84.3302C153.046 74.2897 167.929 72.5154 180.057 79.884C183.042 81.7001 186.591 81.9714 189.785 80.6563C192.978 79.3204 195.295 76.6276 196.11 73.246C199.449 59.4481 211.244 50.1799 225.438 50.1799C239.633 50.1799 251.426 59.4481 254.766 73.246C255.163 74.8951 255.956 76.4398 257.062 77.7131C258.148 78.9864 259.567 80.0092 261.112 80.6563C262.678 81.3034 264.389 81.5748 266.059 81.4496C267.729 81.3243 269.399 80.7816 270.84 79.9049C282.968 72.5154 297.851 74.3106 307.891 84.3302C317.932 94.3708 319.706 109.254 312.338 121.382C311.461 122.822 310.918 124.472 310.793 126.162C310.668 127.853 310.939 129.565 311.586 131.11C312.233 132.675 313.256 134.074 314.529 135.159C315.803 136.266 317.347 137.038 318.996 137.455C332.794 140.795 342.042 152.589 342.042 166.784C342.042 180.978 332.773 192.772 318.976 196.112C317.326 196.509 315.782 197.302 314.508 198.387C313.235 199.494 312.212 200.892 311.565 202.458C310.918 204.023 310.647 205.735 310.772 207.405C310.897 209.075 311.44 210.724 312.317 212.164C319.706 224.292 317.911 239.176 307.891 249.216C297.851 259.257 282.968 261.031 270.84 253.662C269.399 252.786 267.75 252.243 266.059 252.118C264.389 251.992 262.657 252.264 261.112 252.911C259.547 253.558 258.148 254.581 257.042 255.854C255.935 257.128 255.163 258.672 254.745 260.321C251.405 274.098 239.612 283.367 225.417 283.367L225.438 283.346ZM185.61 232.642C189.576 232.642 193.521 233.414 197.195 234.938C201.579 236.754 205.503 239.614 208.571 243.204C211.64 246.795 213.853 251.116 214.98 255.708C216.441 261.762 221.347 263.933 225.438 263.933C229.529 263.933 234.414 261.783 235.896 255.708C237.023 251.116 239.236 246.795 242.304 243.204C245.373 239.614 249.318 236.754 253.681 234.959C258.043 233.143 262.824 232.392 267.562 232.746C272.28 233.101 276.893 234.604 280.943 237.067C286.266 240.303 291.275 238.382 294.156 235.481C297.058 232.579 298.978 227.59 295.742 222.267C293.279 218.239 291.797 213.605 291.422 208.887C291.067 204.17 291.818 199.368 293.634 195.006C295.45 190.622 298.31 186.698 301.901 183.629C305.491 180.561 309.812 178.348 314.404 177.221C320.458 175.76 322.629 170.854 322.629 166.763C322.629 162.671 320.479 157.766 314.404 156.305C309.812 155.178 305.491 152.965 301.901 149.896C298.31 146.828 295.45 142.883 293.655 138.52C291.839 134.157 291.088 129.356 291.443 124.638C291.797 119.921 293.3 115.308 295.763 111.258C298.999 105.935 297.078 100.925 294.177 98.0446C291.275 95.1431 286.287 93.2227 280.964 96.4582C276.935 98.9213 272.301 100.403 267.583 100.779C262.866 101.134 258.064 100.383 253.702 98.5665C249.339 96.7504 245.394 93.9116 242.325 90.3004C239.257 86.71 237.044 82.3681 235.917 77.7758C234.456 71.7223 229.55 69.5513 225.459 69.5513C221.368 69.5513 216.462 71.7014 215.001 77.7758C212.705 87.2527 206.234 94.8091 197.237 98.5456C188.24 102.261 178.325 101.51 169.975 96.4374C164.631 93.181 159.642 95.1222 156.741 98.0237C153.839 100.925 151.919 105.914 155.154 111.237C157.617 115.266 159.12 119.9 159.475 124.618C159.851 129.335 159.079 134.136 157.263 138.499C155.447 142.862 152.587 146.807 148.996 149.876C145.406 152.944 141.085 155.157 136.472 156.284C130.418 157.745 128.247 162.651 128.247 166.742C128.247 170.833 130.397 175.718 136.472 177.2C141.064 178.327 145.385 180.54 148.976 183.608C152.566 186.677 155.426 190.622 157.221 194.985C159.037 199.348 159.788 204.149 159.434 208.866C159.079 213.584 157.576 218.197 155.112 222.247C151.856 227.57 153.797 232.579 156.699 235.46C159.6 238.362 164.589 240.282 169.912 237.047C173.941 234.583 178.575 233.101 183.293 232.726C184.065 232.663 184.837 232.642 185.589 232.642H185.61Z" fill="white"/>
<path d="M225.438 212.081C213.33 212.081 201.954 207.364 193.375 198.805C184.795 190.247 180.098 178.849 180.098 166.742C180.098 154.635 184.816 143.259 193.375 134.679C201.933 126.121 213.33 121.403 225.438 121.403C237.545 121.403 248.921 126.121 257.5 134.679C266.059 143.238 270.776 154.635 270.776 166.742C270.776 178.849 266.059 190.226 257.5 198.805C248.942 207.364 237.545 212.081 225.438 212.081ZM225.438 140.837C218.507 140.837 212.015 143.53 207.11 148.436C202.204 153.341 199.512 159.833 199.512 166.763C199.512 173.693 202.204 180.185 207.11 185.091C212.015 189.996 218.507 192.689 225.438 192.689C232.368 192.689 238.859 189.996 243.765 185.091C248.67 180.185 251.363 173.693 251.363 166.763C251.363 159.833 248.67 153.341 243.765 148.436C238.859 143.53 232.368 140.837 225.438 140.837Z" fill="white"/>
</svg>
