<svg width="990" height="331" viewBox="0 0 990 331" fill="none" xmlns="http://www.w3.org/2000/svg">
<path d="M977.83 0.959473H11.7891C5.57522 0.959473 0.537903 5.99685 0.537903 12.2107V319.731C0.537903 325.944 5.57522 330.982 11.7891 330.982H977.83C984.044 330.982 989.081 325.944 989.081 319.731V12.2107C989.081 5.99685 984.044 0.959473 977.83 0.959473Z" fill="#FF6633"/>
<path d="M86.2059 254.937V85.3333H147.889C172.709 85.3333 191.454 93.015 204.104 108.337C216.754 123.679 223.079 144.47 223.079 170.73C223.079 196.99 216.524 217.384 203.394 232.393C190.264 247.422 171.206 254.937 146.219 254.937H86.2059ZM107.56 236.192H145.51C182.666 236.192 201.265 214.378 201.265 170.73C201.265 127.082 183.23 103.828 147.18 103.828H107.56V236.192Z" fill="black" stroke="black" stroke-width="2.50491" stroke-miterlimit="10"/>
<path d="M246.082 254.937V85.3333H365.879V104.078H267.436V157.684H356.862V175.719H267.436V235.252H368.718V254.937H246.082Z" fill="black" stroke="black" stroke-width="2.50491" stroke-miterlimit="10"/>
<path d="M450.567 258.256C427.793 258.256 410.28 252.641 398.026 241.411C385.773 230.18 379.177 215.547 378.217 197.533H399.091C401.93 226.632 419.402 241.181 451.506 241.181C463.676 241.181 473.445 238.446 480.793 232.998C488.141 227.55 491.814 219.681 491.814 209.389C491.814 204.797 490.938 200.768 489.205 197.303C487.473 193.817 485.364 190.978 482.922 188.766C480.459 186.553 476.785 184.486 471.9 182.587C466.995 180.687 462.444 179.184 458.269 178.078C454.074 176.972 448.354 175.636 441.069 174.049C432.364 172.15 425.184 170.208 419.485 168.246C413.786 166.263 408.109 163.55 402.41 160.064C396.711 156.578 392.495 152.11 389.718 146.662C386.942 141.214 385.564 134.597 385.564 126.853C385.564 112.929 390.825 101.991 401.345 93.9965C411.866 86.0225 425.81 82.0146 443.219 82.0146C481.336 82.0146 502.753 99.6534 507.491 134.91H487.326C485.74 122.886 481.231 113.848 473.8 107.753C466.369 101.657 456.328 98.6097 443.678 98.6097C431.968 98.6097 422.679 100.989 415.811 105.728C408.923 110.466 405.499 117.188 405.499 125.892C405.499 129.691 406.251 133.052 407.754 135.975C409.257 138.897 411.24 141.36 413.682 143.322C416.124 145.305 419.381 147.08 423.409 148.666C427.438 150.253 431.425 151.547 435.391 152.591C439.337 153.613 444.158 154.678 449.857 155.784C457.768 157.371 464.24 158.832 469.312 160.168C474.364 161.504 479.979 163.529 486.157 166.221C492.336 168.914 497.116 172.004 500.519 175.469C503.921 178.955 506.844 183.505 509.307 189.1C511.749 194.715 512.981 201.249 512.981 208.68C512.981 224.189 507.241 236.317 495.781 245.085C484.321 253.852 469.249 258.256 450.588 258.256H450.567Z" fill="black" stroke="black" stroke-width="2.50491" stroke-miterlimit="10"/>
<path d="M535.483 254.937V85.3333H556.837V254.937H535.483Z" fill="black" stroke="black" stroke-width="2.50491" stroke-miterlimit="10"/>
<path d="M719.552 254.937L713.395 232.643H712.914C700.578 249.885 682.939 258.506 660.019 258.506C637.099 258.506 617.081 250.365 602.385 234.083C587.69 217.801 580.321 196.677 580.321 170.751C580.321 144.825 587.481 123.512 601.78 106.834C616.1 90.1551 636.139 81.8054 661.919 81.8054C681.206 81.8054 696.82 86.6691 708.76 96.3965C720.701 106.124 728.09 119.442 730.929 136.371H708.865C706.485 124.827 701.267 115.935 693.209 109.693C685.152 103.452 674.548 100.321 661.418 100.321C641.817 100.321 627.017 106.813 617.06 119.776C607.103 132.739 602.114 149.751 602.114 170.772C602.114 191.792 607.562 208.22 618.479 220.932C629.396 233.666 643.466 240.032 660.708 240.032C677.95 240.032 689.994 235.127 698.783 225.337C707.571 215.526 711.954 203.043 711.954 187.847V183.818H660.958V165.323H733.309V254.978H719.552V254.937Z" fill="black" stroke="black" stroke-width="2.50491" stroke-miterlimit="10"/>
<path d="M760.341 254.937V85.3333H782.885L860.204 203.231L872.54 225.045H873.021V85.3333H892.955V254.937H871.121L793.323 136.809L780.756 115.705H780.276V254.937H760.341Z" fill="black" stroke="black" stroke-width="2.50491" stroke-miterlimit="10"/>
</svg>
