<svg width="333" height="333" viewBox="0 0 333 333" fill="none" xmlns="http://www.w3.org/2000/svg">
<path d="M319.696 0.854492H13.1781C6.20334 0.854492 0.549194 6.50864 0.549194 13.4834V320.001C0.549194 326.976 6.20334 332.63 13.1781 332.63H319.696C326.671 332.63 332.325 326.976 332.325 320.001V13.4834C332.325 6.50864 326.671 0.854492 319.696 0.854492Z" fill="#FF6633"/>
<path d="M166.438 132.843C167.44 132.843 168.421 132.885 169.381 132.968C166.918 137.268 165.958 142.257 166.626 147.184C167.294 152.089 169.548 156.661 173.055 160.147C176.562 163.653 181.112 165.908 186.039 166.576C190.944 167.244 195.933 166.263 200.254 163.821C200.859 170.626 199.377 177.451 196.016 183.401C192.656 189.35 187.583 194.151 181.467 197.178C175.33 200.204 168.442 201.29 161.678 200.33C154.915 199.369 148.59 196.384 143.56 191.771C138.529 187.158 135.001 181.125 133.435 174.466C131.891 167.807 132.371 160.836 134.855 154.469C137.339 148.102 141.681 142.633 147.317 138.771C152.953 134.91 159.633 132.843 166.459 132.843H166.438Z" fill="black"/>
<path d="M166.438 76.3361C197.937 76.3361 225.929 90.5514 245.843 108.128C255.842 116.957 264.088 126.873 269.891 136.746C275.589 146.432 279.451 156.932 279.451 166.763C279.451 176.595 275.61 187.095 269.891 196.781C264.088 206.654 255.842 216.569 245.843 225.399C225.909 242.996 197.916 257.191 166.438 257.191C134.959 257.191 106.946 242.975 87.0319 225.399C77.0331 216.569 68.7878 206.654 62.9847 196.781C57.2652 187.095 53.4243 176.595 53.4243 166.763C53.4243 156.932 57.2652 146.432 62.9847 136.746C68.7878 126.873 77.0331 116.957 87.0319 108.128C106.967 90.5305 134.959 76.3361 166.438 76.3361ZM166.438 98.9428C141.743 98.9428 118.865 110.173 101.978 125.077C93.5655 132.488 86.9275 140.587 82.4396 148.206C77.8472 156.013 76.0102 162.463 76.0102 166.763C76.0102 171.063 77.8472 177.514 82.4396 185.321C86.9275 192.94 93.5655 201.039 101.978 208.449C118.865 223.354 141.743 234.584 166.438 234.584C191.132 234.584 214.01 223.354 230.897 208.449C239.31 201.018 245.948 192.94 250.436 185.321C255.028 177.514 256.865 171.063 256.865 166.763C256.865 162.463 255.028 156.013 250.436 148.206C245.948 140.587 239.31 132.488 230.897 125.077C214.01 110.173 191.132 98.9428 166.438 98.9428Z" fill="black"/>
</svg>
