<svg width="333" height="333" viewBox="0 0 333 333" fill="none" xmlns="http://www.w3.org/2000/svg">
<path d="M319.603 0.322754H13.0852C6.11045 0.322754 0.456177 5.9769 0.456177 12.9517V319.47C0.456177 326.444 6.11045 332.098 13.0852 332.098H319.603C326.578 332.098 332.232 326.444 332.232 319.47V12.9517C332.232 5.9769 326.578 0.322754 319.603 0.322754Z" fill="white"/>
<path d="M168.035 259.54C148.017 259.54 131.401 254.071 118.229 243.112C105.037 232.153 98.2941 217.019 97.9392 197.669H119.252C119.586 211.696 124.011 222.53 132.465 230.149C140.94 237.768 152.525 241.567 167.263 241.567C179.933 241.567 190.016 238.436 197.551 232.195C205.087 225.953 208.844 216.748 208.844 204.599C208.844 193.473 204.857 184.998 196.904 179.174C188.951 173.35 177.512 170.449 162.629 170.449H151.586V153.749H162.378C175.905 153.749 186.175 151.098 193.189 145.796C200.202 140.494 203.709 133.042 203.709 123.461C203.709 113.879 200.077 106.553 192.792 101C185.507 95.4474 176.406 92.6503 165.447 92.6503C152.943 92.6503 143.069 96.3658 135.784 103.818C128.499 111.27 124.867 121.144 124.867 133.48H103.805C103.972 116.029 109.629 102.023 120.755 91.5021C131.881 80.9815 147.036 75.7212 166.198 75.7212C182.981 75.7212 196.925 80.0421 208.051 88.6841C219.177 97.3261 224.75 109.099 224.75 123.983C224.75 142.122 215.086 154.459 195.735 160.951V161.723C219.365 167.881 231.159 182.869 231.159 206.645C231.159 223.073 225.21 235.994 213.311 245.408C201.413 254.823 186.3 259.519 167.993 259.519L168.035 259.54Z" fill="black" stroke="black" stroke-width="2.52579" stroke-miterlimit="10"/>
</svg>
