<svg width="333" height="333" viewBox="0 0 333 333" fill="none" xmlns="http://www.w3.org/2000/svg">
<path d="M319.995 0.322754H13.4769C6.50211 0.322754 0.847961 5.9769 0.847961 12.9517V319.47C0.847961 326.444 6.50211 332.098 13.4769 332.098H319.995C326.97 332.098 332.624 326.444 332.624 319.47V12.9517C332.624 5.9769 326.97 0.322754 319.995 0.322754Z" fill="white"/>
<path d="M155.067 253.757L97.4753 166.21L155.005 78.6636H106.597L73.3238 129.555L59.6511 150.45C53.3679 160.032 53.3679 172.347 59.6511 181.929L73.3238 202.824L106.597 253.715H155.005H155.067V253.757Z" fill="black"/>
<path d="M178.384 253.757L235.976 166.21L178.447 78.6631H226.854L260.128 129.555L273.801 150.45C280.084 160.031 280.084 172.347 273.801 181.928L260.128 202.823L226.854 253.715H178.447H178.384V253.757Z" fill="black"/>
</svg>
