<svg width="656" height="656" viewBox="0 0 656 656" fill="none" xmlns="http://www.w3.org/2000/svg">
<path d="M327.958 656.002C508.841 656.002 655.475 509.367 655.475 328.485C655.475 147.602 508.841 0.967041 327.958 0.967041C147.075 0.967041 0.44043 147.602 0.44043 328.485C0.44043 509.367 147.075 656.002 327.958 656.002Z" fill="white"/>
<path d="M388.68 98.1577L407.175 46.7861L425.857 53.5077C433.372 56.2213 438.215 60.584 440.386 66.5958C442.536 72.6285 442.202 79.6005 439.342 87.5536C436.503 95.4649 432.266 100.976 426.65 104.086C421.035 107.196 414.439 107.405 406.882 104.671L388.701 98.1369L388.68 98.1577ZM397.176 94.797L408.678 98.9301C419.929 102.98 427.945 98.3874 432.704 85.174C437.568 71.6683 434.541 62.9428 423.624 59.0184L411.621 54.6975L397.197 94.797H397.176Z" fill="black" stroke="black" stroke-width="0.918468" stroke-miterlimit="10"/>
<path d="M475.267 132.788C468.295 134.687 461.386 133.477 454.56 129.135C447.734 124.793 443.705 119.053 442.453 111.934C441.201 104.816 442.829 97.7609 447.275 90.7471C451.721 83.7542 457.441 79.2871 464.413 77.3876C471.385 75.488 478.294 76.6987 485.12 81.0406C491.946 85.3824 495.975 91.1228 497.227 98.241C498.459 105.359 496.851 112.415 492.405 119.428C487.959 126.442 482.239 130.888 475.267 132.788ZM448.924 110.974C449.613 116.36 452.556 120.702 457.816 124.042C463.056 127.381 468.254 128.216 473.41 126.546C478.566 124.877 482.928 121.265 486.477 115.671C490.026 110.077 491.466 104.587 490.798 99.2012C490.13 93.7947 487.166 89.432 481.926 86.0921C476.687 82.7522 471.468 81.9381 466.312 83.629C461.156 85.3198 456.773 88.9519 453.224 94.5462C449.675 100.141 448.235 105.61 448.924 110.995V110.974Z" fill="black" stroke="black" stroke-width="0.918468" stroke-miterlimit="10"/>
<path d="M489.273 154.476L527.014 115.024L531.982 119.783L494.242 159.236L489.273 154.476Z" fill="black" stroke="black" stroke-width="0.918468" stroke-miterlimit="10"/>
<path d="M535.824 131.159L540.5 127.36L567.783 160.884L563.107 164.684L551.626 150.593L513.948 181.237L509.606 175.914L547.284 145.27L535.824 131.18V131.159Z" fill="black" stroke="black" stroke-width="0.918468" stroke-miterlimit="10"/>
<path d="M560.039 217.371L566.906 214.198L570.017 220.919L563.149 224.092L560.039 217.371Z" fill="black" stroke="black" stroke-width="0.918468" stroke-miterlimit="10"/>
<path d="M558.159 267.427L611.952 258.096L615.334 277.655C616.691 285.525 615.292 291.892 611.117 296.755C606.943 301.619 600.701 304.771 592.372 306.211C584.106 307.652 577.217 306.691 571.727 303.352C566.237 300.012 562.814 294.376 561.436 286.464L558.138 267.427H558.159ZM565.278 273.167L567.365 285.212C569.411 297.006 577.343 301.703 591.203 299.302C605.356 296.839 611.43 289.909 609.447 278.469L607.276 265.903L565.298 273.188L565.278 273.167Z" fill="black" stroke="black" stroke-width="0.918468" stroke-miterlimit="10"/>
<path d="M570.808 359.858C565.715 354.744 563.356 348.127 563.773 340.049C564.17 331.97 567.176 325.625 572.749 321.032C578.323 316.44 585.274 314.352 593.561 314.77C601.848 315.187 608.549 317.943 613.642 323.078C618.735 328.192 621.094 334.809 620.676 342.888C620.28 350.966 617.274 357.312 611.701 361.904C606.128 366.496 599.176 368.584 590.889 368.166C582.602 367.749 575.901 364.973 570.808 359.858ZM576.778 326.167C572.436 329.424 570.119 334.141 569.806 340.341C569.493 346.541 571.33 351.488 575.338 355.141C579.325 358.815 584.627 360.798 591.244 361.132C597.861 361.466 603.351 360.004 607.714 356.748C612.076 353.492 614.415 348.774 614.728 342.575C615.041 336.375 613.183 331.428 609.154 327.775C605.125 324.101 599.823 322.118 593.206 321.784C586.589 321.45 581.12 322.911 576.778 326.167Z" fill="black" stroke="black" stroke-width="0.918468" stroke-miterlimit="10"/>
<path d="M558.993 382.591L611.784 396.555L610.03 403.193L557.239 389.229L558.993 382.591Z" fill="black" stroke="black" stroke-width="0.918468" stroke-miterlimit="10"/>
<path d="M602.225 411.626L607.861 413.797L592.289 454.126L586.653 451.955L593.186 435.005L547.889 417.513L550.373 411.104L595.691 428.597L602.225 411.647V411.626Z" fill="black" stroke="black" stroke-width="0.918468" stroke-miterlimit="10"/>
<path d="M539.33 475.418L545.488 479.823L541.189 485.856L535.03 481.451L539.33 475.418Z" fill="black" stroke="black" stroke-width="0.918468" stroke-miterlimit="10"/>
<path d="M494.869 498.505L529.541 540.692L514.199 553.301C508.02 558.373 501.799 560.293 495.516 559.062C489.233 557.83 483.409 553.948 478.045 547.414C472.722 540.922 470.133 534.472 470.342 528.043C470.53 521.613 473.744 515.852 479.944 510.759L494.869 498.485V498.505ZM493.387 507.523L483.952 515.288C474.705 522.887 474.538 532.113 483.472 542.968C492.594 554.052 501.632 555.931 510.587 548.541L520.44 540.442L493.387 507.523Z" fill="black" stroke="black" stroke-width="0.918468" stroke-miterlimit="10"/>
<path d="M420.764 555.242C422.684 548.27 427.256 542.968 434.478 539.315C441.701 535.662 448.694 535.119 455.436 537.686C462.179 540.254 467.439 545.243 471.196 552.653C474.954 560.064 475.872 567.244 473.952 574.195C472.032 581.167 467.46 586.469 460.237 590.122C453.015 593.775 446.022 594.318 439.28 591.751C432.537 589.183 427.277 584.194 423.519 576.784C419.762 569.374 418.843 562.193 420.764 555.242ZM452.973 543.719C448.005 541.569 442.745 541.882 437.192 544.7C431.66 547.497 428.279 551.547 427.089 556.849C425.878 562.13 426.776 567.724 429.782 573.632C432.767 579.539 436.754 583.568 441.743 585.76C446.732 587.952 451.992 587.618 457.524 584.82C463.055 582.002 466.437 577.953 467.627 572.651C468.817 567.349 467.919 561.733 464.913 555.826C461.907 549.919 457.941 545.89 452.973 543.74V543.719Z" fill="black" stroke="black" stroke-width="0.918468" stroke-miterlimit="10"/>
<path d="M394.986 556.264L409.744 608.826L403.127 610.683L388.389 558.122L395.007 556.264H394.986Z" fill="black" stroke="black" stroke-width="0.918468" stroke-miterlimit="10"/>
<path d="M391.354 608.221L392.251 614.191L349.5 620.578L348.603 614.608L366.575 611.915L359.395 563.884L366.2 562.861L373.381 610.893L391.354 608.2V608.221Z" fill="black" stroke="black" stroke-width="0.918468" stroke-miterlimit="10"/>
<path d="M304.87 585.049L304.098 592.564L296.729 591.792L297.502 584.277L304.87 585.049Z" fill="black" stroke="black" stroke-width="0.918468" stroke-miterlimit="10"/>
<path d="M262.767 557.809L243.374 608.847L224.817 601.791C217.344 598.952 212.585 594.506 210.539 588.432C208.493 582.378 208.953 575.385 211.959 567.495C214.944 559.646 219.265 554.198 224.943 551.192C230.62 548.165 237.196 548.082 244.731 550.941L262.787 557.809H262.767ZM254.208 561.003L242.79 556.661C231.601 552.403 223.523 556.849 218.534 569.979C213.441 583.401 216.3 592.168 227.155 596.301L239.075 600.831L254.208 561.003Z" fill="black" stroke="black" stroke-width="0.918468" stroke-miterlimit="10"/>
<path d="M176.766 521.593C183.78 519.818 190.647 521.154 197.39 525.621C204.132 530.089 208.078 535.891 209.163 543.03C210.269 550.17 208.537 557.204 203.945 564.114C199.373 571.023 193.57 575.386 186.577 577.16C179.584 578.934 172.696 577.598 165.953 573.131C159.211 568.664 155.265 562.861 154.159 555.722C153.053 548.583 154.785 541.549 159.378 534.639C163.949 527.73 169.752 523.367 176.745 521.593H176.766ZM202.713 543.886C202.128 538.501 199.248 534.075 194.071 530.652C188.894 527.229 183.697 526.289 178.52 527.876C173.322 529.441 168.917 532.99 165.264 538.522C161.611 544.053 160.067 549.502 160.651 554.929C161.215 560.335 164.095 564.761 169.272 568.184C174.449 571.607 179.647 572.526 184.845 570.939C190.042 569.353 194.467 565.783 198.12 560.273C201.773 554.762 203.318 549.293 202.713 543.907V543.886Z" fill="black" stroke="black" stroke-width="0.918468" stroke-miterlimit="10"/>
<path d="M163.177 499.675L124.727 538.438L119.842 533.595L158.292 494.832L163.177 499.675Z" fill="black" stroke="black" stroke-width="0.918468" stroke-miterlimit="10"/>
<path d="M116.188 522.135L111.449 525.85L84.772 491.846L89.5105 488.131L100.72 502.43L138.941 472.454L143.178 477.861L104.958 507.836L116.167 522.135H116.188Z" fill="black" stroke="black" stroke-width="0.918468" stroke-miterlimit="10"/>
<path d="M93.5614 435.548L86.6524 438.596L83.667 431.812L90.5765 428.764L93.5614 435.548Z" fill="black" stroke="black" stroke-width="0.918468" stroke-miterlimit="10"/>
<path d="M96.3163 385.533L42.3566 393.883L39.3086 374.261C38.077 366.371 39.6012 360.025 43.8595 355.245C48.1179 350.465 54.4215 347.438 62.7712 346.144C71.0792 344.849 77.9262 345.935 83.3535 349.379C88.7808 352.823 92.0999 358.501 93.3315 366.454L96.2954 385.554L96.3163 385.533ZM89.3029 379.668L87.4239 367.602C85.5869 355.787 77.7381 350.945 63.8567 353.095C49.6622 355.286 43.4627 362.133 45.237 373.593L47.1782 386.201L89.282 379.689L89.3029 379.668Z" fill="black" stroke="black" stroke-width="0.918468" stroke-miterlimit="10"/>
<path d="M85.3354 292.851C90.3453 298.07 92.5578 304.708 92.0151 312.786C91.4724 320.865 88.3622 327.148 82.7052 331.636C77.0483 336.124 70.0763 338.086 61.7892 337.522C53.5021 336.959 46.864 334.078 41.875 328.86C36.8652 323.641 34.6526 317.003 35.1954 308.925C35.7381 300.846 38.8483 294.563 44.5052 290.075C50.1621 285.587 57.1342 283.625 65.4213 284.189C73.7084 284.752 80.3465 287.633 85.3354 292.851ZM78.7602 326.417C83.1647 323.244 85.5652 318.569 85.9827 312.369C86.4001 306.169 84.6467 301.201 80.7223 297.465C76.7979 293.728 71.5166 291.641 64.9203 291.181C58.3241 290.722 52.8134 292.1 48.3881 295.252C43.9627 298.425 41.5413 303.101 41.1239 309.3C40.7064 315.5 42.4599 320.468 46.426 324.205C50.3921 327.941 55.6521 330.028 62.2693 330.488C68.8655 330.926 74.3767 329.569 78.7811 326.396L78.7602 326.417Z" fill="black" stroke="black" stroke-width="0.918468" stroke-miterlimit="10"/>
<path d="M97.6308 270.224L44.9023 256.072L46.6764 249.434L99.4048 263.586L97.6308 270.224Z" fill="black" stroke="black" stroke-width="0.918468" stroke-miterlimit="10"/>
<path d="M54.8388 240.499L49.2441 238.224L65.5262 198.187L71.1203 200.462L64.274 217.287L109.258 235.594L106.669 241.96L61.6856 223.653L54.8388 240.478V240.499Z" fill="black" stroke="black" stroke-width="0.918468" stroke-miterlimit="10"/>
<path d="M118.859 177.897L112.785 173.388L117.21 167.439L123.284 171.948L118.88 177.897H118.859Z" fill="black" stroke="black" stroke-width="0.918468" stroke-miterlimit="10"/>
<path d="M163.739 155.624L129.839 112.832L145.39 100.495C151.652 95.5272 157.915 93.732 164.177 95.068C170.439 96.4039 176.201 100.391 181.44 107.008C186.659 113.583 189.122 120.096 188.809 126.505C188.496 132.913 185.197 138.633 178.893 143.622L163.76 155.624H163.739ZM165.388 146.627L174.969 139.05C184.341 131.619 184.676 122.392 175.95 111.392C167.037 100.14 158.019 98.1156 148.939 105.338L138.94 113.249L165.409 146.648L165.388 146.627Z" fill="black" stroke="black" stroke-width="0.918468" stroke-miterlimit="10"/>
<path d="M238.866 100.182C236.82 107.113 232.165 112.352 224.88 115.88C217.595 119.408 210.602 119.825 203.901 117.132C197.201 114.44 192.024 109.367 188.413 101.894C184.802 94.4211 184.008 87.2195 186.054 80.2892C188.099 73.359 192.754 68.1195 200.039 64.5918C207.325 61.064 214.318 60.6465 221.018 63.3393C227.719 66.0321 232.896 71.1046 236.507 78.5776C240.118 86.0506 240.911 93.2521 238.866 100.182ZM206.448 111.141C211.374 113.396 216.656 113.166 222.229 110.453C227.823 107.739 231.267 103.752 232.562 98.4916C233.856 93.2313 233.063 87.6161 230.182 81.6669C227.302 75.7178 223.377 71.6055 218.43 69.3302C213.483 67.0549 208.222 67.2846 202.628 69.9982C197.033 72.7119 193.61 76.6989 192.316 82.0009C191.022 87.2821 191.836 92.9182 194.717 98.8674C197.598 104.817 201.522 108.929 206.448 111.162V111.141Z" fill="black" stroke="black" stroke-width="0.918468" stroke-miterlimit="10"/>
<path d="M264.605 99.6397L250.786 46.8278L257.444 45.0952L271.263 97.9071L264.626 99.6397H264.605Z" fill="black" stroke="black" stroke-width="0.918468" stroke-miterlimit="10"/>
<path d="M269.259 47.7461L268.465 41.7761L311.32 36.1609L312.114 42.1309L294.099 44.4897L300.403 92.6467L293.598 93.5443L287.294 45.3873L269.28 47.7461H269.259Z" fill="black" stroke="black" stroke-width="0.918468" stroke-miterlimit="10"/>
<path d="M355.304 72.5031L356.222 65.0093L363.57 65.9069L362.651 73.4007L355.304 72.5031Z" fill="black" stroke="black" stroke-width="0.918468" stroke-miterlimit="10"/>
<path d="M289.905 425.195L248.824 308.925L339.273 225.157L283.956 211.484L231.582 260.246L210.06 280.265C200.187 289.449 196.701 303.519 201.168 316.231L210.896 343.952L234.525 411.501L289.842 425.174H289.905V425.195Z" fill="black" stroke="black" stroke-width="2.54666" stroke-miterlimit="10"/>
<path d="M316.561 431.77L407.072 348.023L366.075 231.774L421.392 245.447L445.021 312.996L454.749 340.717C459.216 353.45 455.73 367.499 445.856 376.683L424.335 396.702L371.961 445.464L316.645 431.791H316.582L316.561 431.77Z" fill="black" stroke="black" stroke-width="2.54666" stroke-miterlimit="10"/>
</svg>
