<svg width="2136" height="333" viewBox="0 0 2136 333" fill="none" xmlns="http://www.w3.org/2000/svg">
<path d="M2118.68 0.322754H16.6822C7.51704 0.322754 0.0871582 7.75264 0.0871582 16.9178V315.504C0.0871582 324.669 7.51704 332.098 16.6822 332.098H2118.68C2127.85 332.098 2135.28 324.669 2135.28 315.504V16.9178C2135.28 7.75264 2127.85 0.322754 2118.68 0.322754Z" fill="white"/>
<path d="M219.768 255.658L213.569 233.239H213.089C200.689 250.565 182.967 259.227 159.901 259.227C136.835 259.227 116.733 251.045 101.954 234.658C87.175 218.293 79.7855 197.064 79.7855 170.992C79.7855 144.92 86.9663 123.503 101.37 106.72C115.752 89.937 135.916 81.5664 161.821 81.5664C181.214 81.5664 196.911 86.451 208.914 96.241C220.916 106.01 228.348 119.411 231.207 136.424H209.039C206.659 124.818 201.399 115.884 193.3 109.601C185.201 103.317 174.534 100.186 161.341 100.186C141.615 100.186 126.753 106.699 116.754 119.745C106.734 132.792 101.724 149.888 101.724 171.013C101.724 192.137 107.214 208.649 118.173 221.445C129.132 234.241 143.285 240.649 160.611 240.649C177.936 240.649 190.064 235.723 198.894 225.87C207.724 216.018 212.128 203.451 212.128 188.192V184.143H160.861V165.544H233.587V255.679H219.768V255.658Z" fill="black" stroke="black" stroke-width="2.52579" stroke-miterlimit="10"/>
<path d="M260.787 255.657V85.1562H340.443C355.389 85.1562 367.517 89.4563 376.806 98.0356C386.116 106.615 390.75 117.908 390.75 131.894C390.75 153.686 380.898 167.756 361.171 174.102V174.811C369.605 177.838 375.596 182.556 379.165 189.006C382.735 195.435 384.926 205.183 385.72 218.209C387.306 240.002 389.936 252.15 393.589 254.697V255.657H370.461C368.707 254.217 367.475 251.211 366.766 246.598C366.056 241.985 365.221 232.278 364.261 217.499C363.468 205.1 360.399 196.354 355.076 191.26C349.753 186.167 341.278 183.62 329.672 183.62H282.225V255.637H260.766L260.787 255.657ZM282.246 103.734V166.211H332.803C344.576 166.211 353.469 163.477 359.522 157.987C365.555 152.497 368.582 144.836 368.582 134.962C368.582 124.316 365.868 116.447 360.483 111.353C355.076 106.26 346.246 103.713 334.014 103.713H282.267L282.246 103.734Z" fill="black" stroke="black" stroke-width="2.52579" stroke-miterlimit="10"/>
<path d="M552.087 234.199C536.911 250.899 516.684 259.248 491.406 259.248C466.127 259.248 445.9 250.899 430.724 234.199C415.528 217.5 407.95 196.208 407.95 170.282C407.95 144.356 415.549 123.064 430.724 106.365C445.9 89.6656 466.127 81.3159 491.406 81.3159C516.684 81.3159 536.911 89.6656 552.087 106.365C567.263 123.064 574.861 144.356 574.861 170.282C574.861 196.208 567.263 217.5 552.087 234.199ZM446.067 220.84C456.88 233.886 471.972 240.399 491.385 240.399C510.798 240.399 525.89 233.886 536.703 220.84C547.515 207.814 552.922 190.948 552.922 170.282C552.922 149.617 547.515 132.729 536.703 119.599C525.89 106.469 510.798 99.9358 491.385 99.9358C471.972 99.9358 456.88 106.49 446.067 119.599C435.254 132.708 429.847 149.617 429.847 170.282C429.847 190.948 435.254 207.793 446.067 220.84Z" fill="black" stroke="black" stroke-width="2.52579" stroke-miterlimit="10"/>
<path d="M622.308 255.657L578.2 85.1562H600.619L627.568 196.04L633.997 224.889H634.478C637.17 212.802 639.571 203.033 641.637 195.56L672.406 85.1562H695.535L725.343 195.56L732.253 224.889H732.733C735.425 212.635 737.659 203.033 739.413 196.04L767.802 85.1562H789.511L742.063 255.657H721.544L690.316 135.463L684.116 109.475H683.636C681.257 120.121 679.107 128.784 677.207 135.463L643.829 255.657H622.37H622.308Z" fill="black" stroke="black" stroke-width="2.52579" stroke-miterlimit="10"/>
<path d="M831.218 103.985V85.136H966.191V103.985H909.434V255.658H887.975V103.985H831.218Z" fill="black" stroke="black" stroke-width="2.52579" stroke-miterlimit="10"/>
<path d="M1112.02 234.199C1096.84 250.899 1076.62 259.248 1051.34 259.248C1026.06 259.248 1005.83 250.899 990.656 234.199C975.46 217.5 967.882 196.208 967.882 170.282C967.882 144.356 975.48 123.064 990.656 106.365C1005.83 89.6656 1026.06 81.3159 1051.34 81.3159C1076.62 81.3159 1096.84 89.6656 1112.02 106.365C1127.19 123.064 1134.79 144.356 1134.79 170.282C1134.79 196.208 1127.19 217.5 1112.02 234.199ZM1006 220.84C1016.81 233.886 1031.9 240.399 1051.32 240.399C1070.73 240.399 1085.82 233.886 1096.63 220.84C1107.45 207.814 1112.85 190.948 1112.85 170.282C1112.85 149.617 1107.45 132.729 1096.63 119.599C1085.82 106.469 1070.73 99.9358 1051.32 99.9358C1031.9 99.9358 1016.81 106.49 1006 119.599C995.186 132.708 989.779 149.617 989.779 170.282C989.779 190.948 995.186 207.793 1006 220.84Z" fill="black" stroke="black" stroke-width="2.52579" stroke-miterlimit="10"/>
<path d="M1291.45 255.658L1285.25 233.239H1284.77C1272.37 250.565 1254.65 259.227 1231.59 259.227C1208.52 259.227 1188.42 251.045 1173.64 234.658C1158.86 218.293 1151.47 197.064 1151.47 170.992C1151.47 144.92 1158.67 123.503 1173.05 106.72C1187.44 89.937 1207.58 81.5664 1233.51 81.5664C1252.9 81.5664 1268.6 86.451 1280.6 96.241C1292.6 106.01 1300.03 119.411 1302.89 136.424H1280.72C1278.34 124.818 1273.11 115.884 1264.99 109.601C1256.89 103.317 1246.22 100.186 1233.03 100.186C1213.3 100.186 1198.46 106.699 1188.44 119.745C1178.42 132.792 1173.41 149.888 1173.41 171.013C1173.41 192.137 1178.9 208.649 1189.86 221.445C1200.82 234.241 1214.97 240.649 1232.3 240.649C1249.62 240.649 1261.75 235.723 1270.58 225.87C1279.41 216.018 1283.81 203.451 1283.81 188.192V184.143H1232.55V165.544H1305.27V255.679H1291.45V255.658Z" fill="black" stroke="black" stroke-width="2.52579" stroke-miterlimit="10"/>
<path d="M1332.47 255.657V85.1562H1452.9V104.006H1353.93V157.903H1443.84V176.022H1353.93V235.868H1455.76V255.657H1332.47Z" fill="black" stroke="black" stroke-width="2.52579" stroke-miterlimit="10"/>
<path d="M1467.7 103.985V85.136H1602.67V103.985H1545.91V255.658H1524.45V103.985H1467.7Z" fill="black" stroke="black" stroke-width="2.52579" stroke-miterlimit="10"/>
<path d="M1621.5 255.657V85.1562H1642.96V157.653H1734.05V85.1562H1755.51V255.657H1734.05V175.062H1642.96V255.657H1621.5Z" fill="black" stroke="black" stroke-width="2.52579" stroke-miterlimit="10"/>
<path d="M1785.09 255.657V85.1562H1905.51V104.006H1806.55V157.903H1896.45V176.022H1806.55V235.868H1908.37V255.657H1785.09Z" fill="black" stroke="black" stroke-width="2.52579" stroke-miterlimit="10"/>
<path d="M1931.04 255.657V85.1562H2010.7C2025.64 85.1562 2037.77 89.4563 2047.06 98.0356C2056.37 106.615 2061.01 117.908 2061.01 131.894C2061.01 153.686 2051.15 167.756 2031.43 174.102V174.811C2039.86 177.838 2045.85 182.556 2049.42 189.006C2052.99 195.435 2055.18 205.183 2055.97 218.209C2057.56 240.002 2060.19 252.15 2063.84 254.697V255.657H2040.72C2038.96 254.217 2037.73 251.211 2037.02 246.598C2036.31 241.985 2035.48 232.278 2034.52 217.499C2033.72 205.1 2030.65 196.354 2025.33 191.26C2020.01 186.167 2011.53 183.62 1999.93 183.62H1952.48V255.637H1931.02L1931.04 255.657ZM1952.5 103.734V166.211H2003.06C2014.81 166.211 2023.72 163.477 2029.76 157.987C2035.79 152.497 2038.82 144.836 2038.82 134.962C2038.82 124.316 2036.12 116.447 2030.72 111.353C2025.31 106.26 2016.48 103.713 2004.25 103.713H1952.5V103.734Z" fill="black" stroke="black" stroke-width="2.52579" stroke-miterlimit="10"/>
</svg>
