<svg width="739" height="333" viewBox="0 0 739 333" fill="none" xmlns="http://www.w3.org/2000/svg">
<path d="M729.057 0.322754H9.93841C4.55458 0.322754 0.190125 4.68724 0.190125 10.0711V322.35C0.190125 327.734 4.55458 332.098 9.93841 332.098H729.057C734.441 332.098 738.806 327.734 738.806 322.35V10.0711C738.806 4.68724 734.441 0.322754 729.057 0.322754Z" fill="white"/>
<path d="M85.0652 254.383V83.8823H147.062C172.027 83.8823 190.856 91.585 203.589 107.011C216.302 122.437 222.668 143.332 222.668 169.738C222.668 196.144 216.072 216.643 202.88 231.735C189.687 246.848 170.525 254.383 145.413 254.383H85.0861H85.0652ZM106.524 235.555H144.682C182.047 235.555 200.73 213.616 200.73 169.738C200.73 125.861 182.611 102.481 146.352 102.481H106.524V235.555Z" fill="black" stroke="black" stroke-width="2.52579" stroke-miterlimit="10"/>
<path d="M383.505 232.925C368.329 249.625 348.081 257.974 322.802 257.974C297.523 257.974 277.296 249.625 262.1 232.925C246.924 216.226 239.326 194.934 239.326 169.008C239.326 143.082 246.924 121.791 262.1 105.091C277.275 88.3917 297.503 80.042 322.802 80.042C348.102 80.042 368.308 88.3917 383.505 105.091C398.68 121.791 406.278 143.082 406.278 169.008C406.278 194.934 398.68 216.226 383.505 232.925ZM277.505 219.566C288.318 232.612 303.41 239.125 322.823 239.125C342.236 239.125 357.328 232.612 368.141 219.566C378.954 206.54 384.36 189.674 384.36 169.008C384.36 148.343 378.954 131.455 368.141 118.325C357.328 105.216 342.215 98.6619 322.823 98.6619C303.431 98.6619 288.318 105.216 277.505 118.325C266.692 131.434 261.286 148.343 261.286 169.008C261.286 189.674 266.692 206.54 277.505 219.566Z" fill="black" stroke="black" stroke-width="2.52579" stroke-miterlimit="10"/>
<path d="M465.436 254.383V83.8823H486.895V254.383H465.436Z" fill="black" stroke="black" stroke-width="2.52579" stroke-miterlimit="10"/>
<path d="M506.204 102.711V83.8823H641.177V102.711H584.42V254.383H562.961V102.711H506.204Z" fill="black" stroke="black" stroke-width="2.52579" stroke-miterlimit="10"/>
<path d="M633.077 254.383V230.775H656.206V254.383H633.077Z" fill="black" stroke="black" stroke-width="2.52579" stroke-miterlimit="10"/>
</svg>
