<svg width="448" height="331" viewBox="0 0 448 331" fill="none" xmlns="http://www.w3.org/2000/svg">
<path d="M433.274 0.959473H14.64C6.56997 0.959473 0.0279541 7.50149 0.0279541 15.5715V316.203C0.0279541 324.273 6.56997 330.815 14.64 330.815H433.274C441.344 330.815 447.886 324.273 447.886 316.203V15.5715C447.886 7.50149 441.344 0.959473 433.274 0.959473Z" fill="#2955DC"/>
<path d="M273.231 249.51C269.349 249.51 265.466 248.028 262.502 245.064C256.574 239.136 256.574 229.533 262.502 223.605L317.464 168.643L262.502 113.681C256.574 107.753 256.574 98.1506 262.502 92.2223C268.43 86.294 278.032 86.294 283.94 92.2223L349.631 157.914C355.559 163.842 355.559 173.444 349.631 179.372L283.94 245.064C280.976 248.028 277.093 249.51 273.21 249.51H273.231ZM174.684 249.51C170.801 249.51 166.918 248.028 163.954 245.064L98.263 179.372C92.3347 173.444 92.3347 163.842 98.263 157.914L163.954 92.2223C169.883 86.294 179.485 86.294 185.392 92.2223C191.321 98.1506 191.321 107.753 185.392 113.681L130.43 168.643L185.392 223.605C191.321 229.533 191.321 239.136 185.392 245.064C182.428 248.028 178.545 249.51 174.663 249.51H174.684Z" fill="white"/>
<path d="M352.636 59.9713C360.21 59.9713 366.351 53.8312 366.351 46.2569C366.351 38.6826 360.21 32.5425 352.636 32.5425C345.062 32.5425 338.922 38.6826 338.922 46.2569C338.922 53.8312 345.062 59.9713 352.636 59.9713Z" fill="white"/>
<path d="M401.941 59.9713C409.516 59.9713 415.656 53.8312 415.656 46.2569C415.656 38.6826 409.516 32.5425 401.941 32.5425C394.367 32.5425 388.227 38.6826 388.227 46.2569C388.227 53.8312 394.367 59.9713 401.941 59.9713Z" fill="white"/>
</svg>
