<svg width="1450" height="333" viewBox="0 0 1450 333" fill="none" xmlns="http://www.w3.org/2000/svg">
<path d="M1436.21 0.854492H14.3535C6.80234 0.854492 0.680786 6.97592 0.680786 14.5271V318.958C0.680786 326.509 6.80234 332.63 14.3535 332.63H1436.21C1443.76 332.63 1449.88 326.509 1449.88 318.958V14.5271C1449.88 6.97592 1443.76 0.854492 1436.21 0.854492Z" fill="#2955DC"/>
<path d="M86.8087 256.188V85.6869H202.473V104.536H108.268V157.724H186.734V175.843H108.268V256.209H86.8087V256.188Z" fill="white" stroke="white" stroke-width="2.52579" stroke-miterlimit="10"/>
<path d="M222.261 256.188V85.6869H301.918C316.864 85.6869 328.992 89.987 338.281 98.5663C347.591 107.146 352.225 118.439 352.225 132.424C352.225 154.217 342.372 168.286 322.646 174.632V175.342C331.079 178.369 337.07 183.086 340.639 189.536C344.209 195.966 346.401 205.714 347.194 218.74C348.78 240.532 351.411 252.681 355.064 255.228V256.188H331.935C330.182 254.748 328.95 251.742 328.24 247.128C327.531 242.515 326.695 232.809 325.735 218.03C324.942 205.631 321.874 196.884 316.551 191.791C311.228 186.698 302.753 184.151 291.147 184.151H243.699V256.167H222.241L222.261 256.188ZM243.72 104.286V166.763H294.278C306.03 166.763 314.943 164.028 320.976 158.538C327.009 153.048 330.035 145.387 330.035 135.514C330.035 124.868 327.322 116.998 321.936 111.905C316.53 106.812 307.7 104.265 295.467 104.265H243.72V104.286Z" fill="white" stroke="white" stroke-width="2.52579" stroke-miterlimit="10"/>
<path d="M513.562 234.73C498.387 251.429 478.159 259.779 452.86 259.779C427.56 259.779 407.354 251.429 392.178 234.73C377.003 218.03 369.404 196.738 369.404 170.812C369.404 144.887 377.003 123.595 392.178 106.895C407.354 90.1959 427.581 81.8462 452.86 81.8462C478.138 81.8462 498.366 90.1959 513.562 106.895C528.738 123.595 536.336 144.887 536.336 170.812C536.336 196.738 528.738 218.03 513.562 234.73ZM407.563 221.37C418.375 234.416 433.467 240.929 452.881 240.929C472.294 240.929 487.386 234.416 498.198 221.37C509.011 208.344 514.418 191.478 514.418 170.812C514.418 150.147 509.011 133.26 498.198 120.13C487.386 107.021 472.273 100.466 452.881 100.466C433.488 100.466 418.375 107.021 407.563 120.13C396.75 133.239 391.343 150.147 391.343 170.812C391.343 191.478 396.75 208.324 407.563 221.37Z" fill="white" stroke="white" stroke-width="2.52579" stroke-miterlimit="10"/>
<path d="M559.465 256.188V85.6869H582.114L659.849 204.211L672.248 226.15H672.729V85.6869H692.768V256.188H670.829L592.613 137.434L579.984 116.205H579.504V256.188H559.465Z" fill="white" stroke="white" stroke-width="2.52579" stroke-miterlimit="10"/>
<path d="M711.618 104.536V85.6869H846.591V104.536H789.834V256.209H768.375V104.536H711.618Z" fill="white" stroke="white" stroke-width="2.52579" stroke-miterlimit="10"/>
<path d="M839.431 188.222V167.953H908.107V188.222H839.431Z" fill="white" stroke="white" stroke-width="2.52579" stroke-miterlimit="10"/>
<path d="M930.777 256.188V85.6869H1051.2V104.536H952.236V158.434H1042.14V176.553H952.236V236.399H1054.06V256.188H930.777Z" fill="white" stroke="white" stroke-width="2.52579" stroke-miterlimit="10"/>
<path d="M1076.71 256.188V85.6869H1099.36L1177.09 204.211L1189.49 226.15H1189.97V85.6869H1210.01V256.188H1188.07L1109.86 137.434L1097.23 116.205H1096.75V256.188H1076.71Z" fill="white" stroke="white" stroke-width="2.52579" stroke-miterlimit="10"/>
<path d="M1239.59 256.188V85.6869H1301.59C1326.55 85.6869 1345.38 93.4104 1358.11 108.816C1370.83 124.242 1377.19 145.137 1377.19 171.522C1377.19 197.907 1370.6 218.426 1357.41 233.519C1344.21 248.632 1325.05 256.167 1299.94 256.167H1239.61L1239.59 256.188ZM1261.05 237.359H1299.21C1336.57 237.359 1355.26 215.421 1355.26 171.543C1355.26 127.665 1337.14 104.286 1300.88 104.286H1261.05V237.359Z" fill="white" stroke="white" stroke-width="2.52579" stroke-miterlimit="10"/>
</svg>
