<svg width="331" height="331" viewBox="0 0 331 331" fill="none" xmlns="http://www.w3.org/2000/svg">
<path d="M317.834 0.771973H12.7564C5.81625 0.771973 0.190125 6.39808 0.190125 13.3383V318.416C0.190125 325.356 5.81625 330.982 12.7564 330.982H317.834C324.774 330.982 330.4 325.356 330.4 318.416V13.3383C330.4 6.39808 324.774 0.771973 317.834 0.771973Z" fill="#CEBA97"/>
<path d="M194.863 90.4897L246.527 142.154M72.1435 264.873H123.807L259.428 129.253C262.809 125.851 265.502 121.843 267.339 117.397C269.176 112.971 270.115 108.212 270.115 103.411C270.115 98.6098 269.176 93.8713 267.339 89.4251C265.502 84.9997 262.809 80.971 259.428 77.5685C256.025 74.166 252.017 71.494 247.571 69.6571C243.146 67.8202 238.386 66.8809 233.585 66.8809C228.784 66.8809 224.046 67.8202 219.599 69.6571C215.174 71.494 211.145 74.1868 207.743 77.5685L72.1226 213.189V264.853L72.1435 264.873Z" stroke="black" stroke-width="19.0165" stroke-linecap="round" stroke-linejoin="round"/>
</svg>
