<svg width="1756" height="331" viewBox="0 0 1756 331" fill="none" xmlns="http://www.w3.org/2000/svg">
<path d="M1740.25 0.959473H15.8421C7.55308 0.959473 0.833496 7.67906 0.833496 15.9681V315.973C0.833496 324.262 7.55308 330.982 15.8421 330.982H1740.25C1748.53 330.982 1755.25 324.262 1755.25 315.973V15.9681C1755.25 7.67906 1748.53 0.959473 1740.25 0.959473Z" fill="#CEBA97"/>
<path d="M85.2694 253.684V84.0808H112.552L167.577 224.982H168.057L222.622 84.0808H250.364V253.684H229.97V114.202H229.49C226.484 123.053 223.958 130.171 221.892 135.557L175.405 253.684H159.039L112.552 135.557L104.954 114.202H104.474V253.684H85.2485H85.2694Z" fill="black" stroke="black" stroke-width="2.50491" stroke-miterlimit="10"/>
<path d="M266.25 253.684L328.643 84.0808H352.606L415.229 253.684H391.975L373.94 201.979H306.328L288.063 253.684H266.25ZM332.671 127.708L312.507 184.632H368.012L348.557 127.708L340.958 103.744H340.478C337.472 113.242 334.863 121.216 332.65 127.708H332.671Z" fill="black" stroke="black" stroke-width="2.50491" stroke-miterlimit="10"/>
<path d="M431.094 253.684V84.0808H453.638L530.956 201.979L543.293 223.792H543.773V84.0808H563.708V253.684H541.873L464.075 135.557L451.509 114.453H451.028V253.684H431.094Z" fill="black" stroke="black" stroke-width="2.50491" stroke-miterlimit="10"/>
<path d="M579.594 253.684L641.987 84.0808H665.951L728.574 253.684H705.32L687.285 201.979H619.673L601.408 253.684H579.594ZM646.016 127.708L625.851 184.632H681.356L661.901 127.708L654.303 103.744H653.823C650.817 113.242 648.208 121.216 645.995 127.708H646.016Z" fill="black" stroke="black" stroke-width="2.50491" stroke-miterlimit="10"/>
<path d="M868.994 253.684L862.836 231.391H862.356C850.019 248.633 832.381 257.254 809.461 257.254C786.541 257.254 766.522 249.113 751.827 232.831C737.131 216.549 729.762 195.424 729.762 169.498C729.762 143.572 736.922 122.26 751.221 105.581C765.541 88.9027 785.58 80.553 811.36 80.553C830.648 80.553 846.262 85.4167 858.202 95.1441C870.142 104.871 877.532 118.189 880.37 135.118H858.306C855.927 123.575 850.708 114.682 842.651 108.441C834.593 102.2 823.989 99.0685 810.859 99.0685C791.258 99.0685 776.458 105.56 766.501 118.523C756.544 131.486 751.555 148.499 751.555 169.519C751.555 190.54 757.003 206.968 767.921 219.68C778.838 232.413 792.907 238.78 810.149 238.78C827.391 238.78 839.436 233.875 848.224 224.085C857.012 214.274 861.396 201.791 861.396 186.594V182.566H810.4V164.071H882.75V253.726H868.994V253.684Z" fill="black" stroke="black" stroke-width="2.50491" stroke-miterlimit="10"/>
<path d="M909.782 253.684V84.0808H1029.58V102.826H931.137V156.431H1020.56V174.466H931.137V234H1032.42V253.684H909.782Z" fill="black" stroke="black" stroke-width="2.50491" stroke-miterlimit="10"/>
<path d="M1054.96 253.684V84.0808H1082.25L1137.27 224.982H1137.75L1192.32 84.0808H1220.06V253.684H1199.66V114.202H1199.18C1196.18 123.053 1193.65 130.171 1191.59 135.557L1145.1 253.684H1128.73L1082.25 135.557L1074.65 114.202H1074.17V253.684H1054.94H1054.96Z" fill="black" stroke="black" stroke-width="2.50491" stroke-miterlimit="10"/>
<path d="M1249.47 253.684V84.0808H1369.27V102.826H1270.82V156.431H1360.25V174.466H1270.82V234H1372.11V253.684H1249.47Z" fill="black" stroke="black" stroke-width="2.50491" stroke-miterlimit="10"/>
<path d="M1394.63 253.684V84.0808H1417.17L1494.49 201.979L1506.83 223.792H1507.31V84.0808H1527.24V253.684H1505.41L1427.61 135.557L1415.04 114.453H1414.56V253.684H1394.63Z" fill="black" stroke="black" stroke-width="2.50491" stroke-miterlimit="10"/>
<path d="M1545.97 102.805V84.0601H1680.23V102.805H1623.77V253.664H1602.41V102.805H1545.95H1545.97Z" fill="black" stroke="black" stroke-width="2.50491" stroke-miterlimit="10"/>
</svg>
